<svg xmlns="http://www.w3.org/2000/svg" enable-background="new 0 0 72 72" viewBox="0 0 72 72" id="reddit">
  <switch>
    <g>
      <path d="M4,36c0,17.7,14.3,32,32,32s32-14.3,32-32S53.7,4,36,4S4,18.3,4,36z M53.9,41.9c0,0.4,0.1,0.7,0.1,1.1
			c0,7.2-8.1,13-18,13s-18-5.8-18-13c0-0.4,0-0.7,0.1-1.1C15.8,41.5,14,39.4,14,37c0-2.8,2.2-5,5-5c1.6,0,3.1,0.8,4,2
			c2.9-2.2,6.9-3.7,11.3-4L37,17.8c0.1-0.3,0.2-0.5,0.5-0.6c0.3-0.1,0.5-0.2,0.8-0.1l8.3,2.8c0.7-1.1,2-1.8,3.4-1.8c2.2,0,4,1.8,4,4
			c0,2.2-1.8,4-4,4s-4-1.8-4-4c0-0.1,0-0.2,0-0.3l-7.3-2.4L36.4,30c5,0.1,9.4,1.6,12.6,4c0.9-1.2,2.4-2,4-2c2.8,0,5,2.2,5,5
			C58,39.4,56.2,41.5,53.9,41.9z M28,42c1.6,0,3-1.4,3-3c0-1.7-1.4-3-3-3s-3,1.3-3,3C25,40.6,26.4,42,28,42z M43.3,48
			c-0.2-0.5-0.9-0.7-1.3-0.4c-3.6,1.9-8.3,1.9-12,0c-0.5-0.3-1.1-0.1-1.3,0.4c-0.3,0.5-0.1,1.1,0.4,1.3c2.1,1.1,4.5,1.7,6.9,1.7
			s4.8-0.6,6.9-1.7C43.4,49.1,43.6,48.5,43.3,48z M46,39c0-1.7-1.4-3-3-3s-3,1.3-3,3c0,1.6,1.4,3,3,3S46,40.6,46,39z"></path>
    </g>
  </switch>
</svg>
